#N canvas 149 23 509 619 10;
#X obj 253 249 vsl 15 128 0 1 0 0 VOICE li1 VOICE 0 -9 0 10 -262144
-1 -1 0 1;
#X obj 109 254 vsl 15 128 0 1 0 0 SIREN empty SIREN 0 -9 0 10 -262144
-1 -1 0 1;
#X obj 29 257 vsl 15 128 0 1 0 0 FIRE li2 FIRE 0 -9 0 10 -262144 -1
-1 0 1;
#X floatatom 29 395 5 0 0 0 - - l2, f 5;
#X obj 86 472 bng 15 250 50 0 b empty START 17 7 0 10 -262144 -1 -1
;
#X obj 20 492 s o;
#X floatatom 252 385 5 0 0 0 - - l1, f 5;
#X floatatom 30 191 5 0 0 0 - - l4, f 5;
#X obj 141 473 bng 15 250 50 0 bD empty LEVEL_1/2_DOWN 17 7 0 10 -262144
-1 -1;
#X text 43 471 STOP;
#X msg 20 471 0;
#X floatatom 109 390 5 0 0 0 - - l3, f 5;
#X obj 213 114 tgl 15 0 thunderStart empty START_THUNDER 17 7 0 10
-262144 -1 -1 0 1;
#X obj 214 134 bng 15 250 50 0 thunderTap empty THUNDER_TAP 17 7 0
10 -262144 -1 -1;
#X obj 150 56 vsl 15 128 0 1 0 0 THUNDER li5 THUNDER 0 -9 0 10 -262144
-1 -1 0 1;
#X obj 215 154 bng 15 250 50 0 boxDelay empty BOX_DELAY 17 7 0 10 -262144
-1 -1;
#X msg 151 257 0;
#X msg 151 279 0.1;
#X msg 152 302 0.01;
#X obj 143 368 s sirenSig;
#X obj 332 55 rain;
#X obj 331 75 siren;
#X obj 331 96 voice, f 6;
#X obj 369 54 thunder;
#X obj 369 75 fire;
#N canvas 68 233 843 646 FXmixer 0;
#X obj 21 57 catch~ la;
#X obj 98 56 catch~ ra;
#X obj 11 239 catch~ rain;
#X obj 11 307 *~, f 15;
#X obj 98 259 pack f 20;
#X obj 98 281 line~;
#X obj 42 350 throw~ dacOut1;
#X obj 40 329 throw~ dacOut2;
#X obj 40 192 throw~ dacOut1;
#X obj 40 170 throw~ dacOut2;
#X obj 95 103 catch~ thunder;
#X obj 188 51 line~;
#X obj 190 29 pack f 20;
#X obj 96 126 *~, f 10;
#X obj 98 78 *~, f 10;
#X obj 21 80 *~, f 8;
#X obj 190 8 r THUNDER;
#X obj 180 235 catch~ siren;
#X obj 180 303 *~, f 16;
#X obj 218 327 throw~ dacOut1;
#X obj 219 348 throw~ dacOut2;
#X obj 96 237 r RAIN;
#X obj 272 234 r SIREN;
#X obj 272 256 pack f 20;
#X obj 272 278 line~;
#X obj 354 231 catch~ fire;
#X obj 354 300 *~, f 16;
#X obj 447 229 r FIRE;
#X obj 447 251 pack f 20;
#X obj 447 273 line~;
#X obj 384 324 throw~ dacOut1;
#X obj 385 346 throw~ dacOut2;
#X obj 532 231 catch~ voice;
#X obj 532 298 *~, f 18;
#X obj 557 349 throw~ dacOut1;
#X obj 556 324 throw~ dacOut2;
#X obj 637 228 r VOICE;
#X obj 637 250 pack f 20;
#X obj 637 272 line~;
#X obj 532 256 reverb;
#X obj 4 501 *~, f 15;
#X obj 7 558 throw~ dacOut1;
#X obj 17 536 throw~ dacOut2;
#X obj 6 435 catch~ chant;
#X obj 93 390 r CHANT;
#X obj 93 412 pack f 20;
#X obj 93 434 line~;
#X connect 0 0 15 0;
#X connect 1 0 14 0;
#X connect 2 0 3 0;
#X connect 3 0 6 0;
#X connect 3 0 7 0;
#X connect 4 0 5 0;
#X connect 5 0 3 1;
#X connect 10 0 13 0;
#X connect 11 0 13 1;
#X connect 11 0 15 1;
#X connect 11 0 14 1;
#X connect 12 0 11 0;
#X connect 13 0 9 0;
#X connect 13 0 8 0;
#X connect 14 0 9 0;
#X connect 15 0 8 0;
#X connect 16 0 12 0;
#X connect 17 0 18 0;
#X connect 18 0 19 0;
#X connect 18 0 20 0;
#X connect 21 0 4 0;
#X connect 22 0 23 0;
#X connect 23 0 24 0;
#X connect 24 0 18 1;
#X connect 25 0 26 0;
#X connect 26 0 30 0;
#X connect 26 0 31 0;
#X connect 27 0 28 0;
#X connect 28 0 29 0;
#X connect 29 0 26 1;
#X connect 32 0 39 0;
#X connect 33 0 34 0;
#X connect 33 0 35 0;
#X connect 36 0 37 0;
#X connect 37 0 38 0;
#X connect 38 0 33 1;
#X connect 39 0 33 0;
#X connect 40 0 41 0;
#X connect 40 0 42 0;
#X connect 43 0 40 0;
#X connect 44 0 45 0;
#X connect 45 0 46 0;
#X connect 46 0 40 1;
#X restore 331 124 pd FXmixer;
#N canvas 2039 220 655 499 mixer 0;
#X obj 74 110 catch~ dacOut1;
#X obj 339 50 catch~ dacOut2;
#X obj 228 170 *~, f 10;
#X obj 202 66 r mainLevel;
#X obj 202 88 pack f 20;
#X obj 202 110 line~;
#X obj 127 171 *~, f 10;
#X obj 159 238 dac~ 1;
#X obj 288 244 dac~ 2;
#X msg 89 328 stop;
#X msg 60 288 open voice006 \, start;
#X obj 63 362 writesf~ 2;
#X obj 245 337 vu 15 120 empty empty -1 -8 0 10 -66577 -1 1 0;
#X obj 237 264 env~;
#X obj 236 290 - 100;
#X connect 0 0 6 0;
#X connect 1 0 2 0;
#X connect 2 0 8 0;
#X connect 2 0 11 1;
#X connect 2 0 13 0;
#X connect 3 0 4 0;
#X connect 4 0 5 0;
#X connect 5 0 2 1;
#X connect 5 0 6 1;
#X connect 6 0 7 0;
#X connect 6 0 11 0;
#X connect 6 0 13 0;
#X connect 9 0 11 0;
#X connect 10 0 11 0;
#X connect 13 0 14 0;
#X connect 14 0 12 0;
#X restore 331 145 pd mixer;
#X floatatom 75 191 5 0 0 0 - - -, f 5;
#X floatatom 150 192 5 0 0 0 - - -, f 5;
#X obj 272 357 bng 15 250 50 0 voiceBang empty VOICE_PLAY 17 7 0 10
-262144 -1 -1;
#X obj 273 338 tgl 15 0 voiceMetro empty VOICE_LOOP 17 7 0 10 -262144
-1 -1 0 1;
#X obj 30 55 vsl 15 128 0 1 0 0 RAIN empty RAIN 0 -9 0 10 -262144 -1
-1 0 1;
#X obj 75 55 vsl 15 128 0 127 0 0 rainAmount empty RAIN_AMOUNT 0 -9
0 10 -262144 -1 -1 0 1;
#X obj 22 523 noise~;
#X obj 22 573 s~ noise;
#X floatatom 121 525 5 0 0 0 - - -, f 5;
#X floatatom 71 524 5 0 0 0 - - -, f 5;
#X obj 22 548 bp~ 750 0.5, f 17;
#X floatatom 394 385 5 0 0 0 VOLUME - volumeAll, f 5;
#X obj 393 246 vsl 15 128 0 1 0 0 mainLevel empty MAIN_LEVEL 0 -9 0
10 -262144 -1 -1 0 1;
#X msg 152 331 -0.01;
#X connect 0 0 6 0;
#X connect 1 0 11 0;
#X connect 2 0 3 0;
#X connect 10 0 5 0;
#X connect 14 0 28 0;
#X connect 16 0 19 0;
#X connect 17 0 19 0;
#X connect 18 0 19 0;
#X connect 31 0 7 0;
#X connect 32 0 27 0;
#X connect 33 0 37 0;
#X connect 35 0 37 2;
#X connect 36 0 37 1;
#X connect 37 0 34 0;
#X connect 39 0 38 0;
#X connect 40 0 19 0;
