#N canvas 2640 113 572 726 10;
#X obj 22 47 noise~;
#X obj 22 91 clip~ 0 1;
#X obj 22 113 max~ \$3, f 29;
#X obj 22 135 -~ \$3;
#X obj 22 157 *~;
#X obj 22 179 *~;
#X obj 22 201 *~ \$4, f 18;
#X obj 22 223 outlet~;
#X obj 22 69 bp~ \$1 \$2, f 22;
#X obj 86 28 inlet f;
#X obj 151 30 inlet q;
#X obj 192 71 inlet t;
#X obj 127 166 inlet a;
#X connect 0 0 8 0;
#X connect 1 0 2 0;
#X connect 2 0 3 0;
#X connect 3 0 4 0;
#X connect 3 0 4 1;
#X connect 4 0 5 0;
#X connect 4 0 5 1;
#X connect 5 0 6 0;
#X connect 6 0 7 0;
#X connect 8 0 1 0;
#X connect 9 0 8 1;
#X connect 10 0 8 2;
#X connect 11 0 2 1;
#X connect 12 0 6 1;
