#N canvas 1833 52 694 416 10;
#X obj 312 34 inlet~;
#X obj 181 92 delwrite~ \$0-a 300;
#X obj 420 92 delwrite~ \$0-b 300;
#X obj 181 62 catch~ \$0-a;
#X obj 420 58 catch~ \$0-b;
#X obj 183 117 delread~ \$0-a \$9;
#X obj 420 122 delread~ \$0-b \$10;
#X obj 153 162 *~ \$11;
#X obj 51 163 *~ \$11;
#X obj 47 186 bp~ \$1 \$12;
#X obj 153 184 bp~ \$2 \$12;
#X obj 15 208 osc~ \$5;
#X obj 15 230 *~, f 6;
#X obj 15 252 throw~ \$0-b;
#X obj 139 228 *~;
#X obj 139 206 osc~ \$6;
#X obj 139 250 throw~ \$0-a;
#X obj 543 169 *~ \$11;
#X obj 439 172 *~ \$11;
#X obj 407 239 *~, f 6;
#X obj 407 261 throw~ \$0-b;
#X obj 530 242 *~;
#X obj 529 264 throw~ \$0-a;
#X obj 439 195 bp~ \$3 \$12;
#X obj 543 196 bp~ \$4 \$12;
#X obj 408 217 osc~ \$7;
#X obj 528 219 osc~ \$8;
#X text 171 287 waveguide or reverb with two recirculating delays;
#X text 169 305 contains four modulators connected to an oscillator
that shift the sidebands further away from the resonant frequency each
time they circulate through the delays, f 49;
#X obj 306 236 outlet~;
#X connect 0 0 1 0;
#X connect 0 0 2 0;
#X connect 3 0 1 0;
#X connect 4 0 2 0;
#X connect 5 0 7 0;
#X connect 5 0 8 0;
#X connect 6 0 18 0;
#X connect 6 0 17 0;
#X connect 7 0 10 0;
#X connect 7 0 29 0;
#X connect 8 0 9 0;
#X connect 9 0 12 1;
#X connect 10 0 14 1;
#X connect 11 0 12 0;
#X connect 12 0 13 0;
#X connect 14 0 16 0;
#X connect 15 0 14 0;
#X connect 17 0 24 0;
#X connect 18 0 23 0;
#X connect 18 0 29 0;
#X connect 19 0 20 0;
#X connect 21 0 22 0;
#X connect 23 0 19 1;
#X connect 24 0 21 1;
#X connect 25 0 19 0;
#X connect 26 0 21 0;
