#N canvas 1467 458 762 456 10;
#X obj 145 19 hsl 128 15 0 127 0 0 empty empty empty -2 -8 0 10 -262144
-1 -1 0 1;
#X obj 140 42 / 20;
#X obj 140 64 + 0.004;
#X obj 111 143 hip~ 2000;
#X obj 32 302 dac~;
#X obj 111 121 drops 7.7 0.013 0.16 3;
#X obj 110 178 glassWindow 2007 1994 1986 1969 254 669 443 551 3.7
4.2 0.61 2.3;
#X obj 152 280 s~ rainLevel;
#X connect 0 0 1 0;
#X connect 1 0 2 0;
#X connect 2 0 5 1;
#X connect 3 0 6 0;
#X connect 5 0 3 0;
#X connect 6 0 7 0;
#X connect 6 0 4 0;
#X connect 6 0 4 1;
