#N canvas 767 27 476 435 10;
#X obj 73 59 hsl 128 15 0 127 0 0 empty rainAmount empty -2 -8 0 10
-262144 -1 -1 12700 1;
#X obj 61 82 / 20;
#X obj 61 104 + 0.004;
#X obj 12 162 hip~ 2000;
#X obj 12 134 drops 7.7 0.013 0.16 3;
#X obj 12 189 glassWindow 2007 1994 1986 1969 254 669 443 551 3.7 4.2
0.61 2.3;
#X obj 12 224 throw~ rain;
#X connect 0 0 1 0;
#X connect 1 0 2 0;
#X connect 2 0 4 1;
#X connect 3 0 5 0;
#X connect 4 0 3 0;
#X connect 5 0 6 0;
