#N canvas 130 215 1204 774 10;
#X obj 124 119 sig~;
#X obj 121 172 *~, f 17;
#X floatatom 224 149 5 0 0 0 - - -, f 5;
#X obj 17 42 loadbang;
#X obj 228 103 loadbang;
#X msg 123 68 800;
#X msg 89 66 400;
#X msg 56 65 200;
#X msg 18 64 100;
#X obj 43 229 inlet~;
#X obj 372 272 outlet~;
#X msg 225 125 0.9;
#X obj 95 277 delwrite~ buff1-\$0 10000;
#X obj 124 141 vd~ buff1-\$0;
#X connect 0 0 13 0;
#X connect 1 0 10 0;
#X connect 1 0 12 0;
#X connect 2 0 1 1;
#X connect 3 0 8 0;
#X connect 4 0 11 0;
#X connect 5 0 0 0;
#X connect 6 0 0 0;
#X connect 7 0 0 0;
#X connect 8 0 0 0;
#X connect 9 0 12 0;
#X connect 11 0 2 0;
#X connect 13 0 1 0;
