#N canvas 7 23 697 557 10;
#X obj 239 52 inlet;
#X obj 240 74 t f f;
#X obj 240 96 swap 1;
#X obj 240 118 -;
#X obj 240 140 + 0.4;
#X obj 240 162 pow 5;
#X obj 240 184 * 200;
#X msg 240 206 1 \, 0 \$1 0;
#X obj 240 228 vline~;
#X text 16 11 four copies are used to create a clatter of noise \,
so that they can overlap polyphonically, f 22;
#X text 8 102 basically \, each is a pair of band pass filters \, a
noise source \, and an envelope, f 9;
#X obj 170 299 *~;
#X obj 245 448 outlet~;
#X obj 335 127 * 1200;
#X obj 335 171 t f f;
#X obj 336 149 + 100;
#X obj 370 223 * 0.5;
#X text 332 10 larger values will produce brighter \, shorter noise
burst \, and smaller values will make dull \, long bursts, f 34;
#X text 126 95 the compliment is taken so that smaller values will
make longer envelope decays, f 15;
#X text 375 126 filters frequency between 100Hz and 1300HZ, f 15;
#X text 476 188 the second filter mirrors this at half the frequency
\; thus we have two fairly wide banfs to color hte noise, f 25;
#X obj 344 335 vcf~ 3;
#X msg 359 288 \$1 10;
#X obj 359 310 line~;
#X obj 199 393 vcf~ 3;
#X msg 213 346 \$1 10;
#X obj 213 368 line~;
#X obj 135 266 r~ noise;
#X connect 0 0 1 0;
#X connect 1 0 2 0;
#X connect 1 1 13 0;
#X connect 2 0 3 0;
#X connect 2 1 3 1;
#X connect 3 0 4 0;
#X connect 4 0 5 0;
#X connect 5 0 6 0;
#X connect 6 0 7 0;
#X connect 7 0 8 0;
#X connect 8 0 11 1;
#X connect 11 0 24 0;
#X connect 11 0 21 0;
#X connect 13 0 15 0;
#X connect 14 0 25 0;
#X connect 14 1 16 0;
#X connect 15 0 14 0;
#X connect 16 0 12 0;
#X connect 16 0 22 0;
#X connect 21 0 12 0;
#X connect 22 0 23 0;
#X connect 23 0 21 1;
#X connect 24 0 12 0;
#X connect 25 0 26 0;
#X connect 26 0 24 1;
#X connect 27 0 11 0;
