#N canvas 85 63 961 790 10;
#X obj 593 184 s go;
#X obj 444 103 r go;
#N canvas 367 285 900 558 strikeSound 0;
#N canvas 0 22 626 436 strikePattern 0;
#X obj 119 28 inlet;
#X obj 119 50 t b b;
#X msg 111 81 1;
#X msg 144 80 0;
#X obj 111 103 +;
#X obj 111 125 moses 100;
#X obj 112 160 t f f;
#X obj 112 233 random 100;
#X obj 112 211 t b b;
#X obj 144 103 f;
#X obj 33 109 / 10;
#X obj 112 182 del;
#X obj 213 286 f;
#X obj 245 285 + 1;
#X obj 213 308 mod 4;
#X obj 213 330 pack f f;
#X obj 213 352 outlet;
#X obj 312 227 swap 100;
#X obj 312 249 -;
#X obj 312 271 / 100;
#X connect 0 0 1 0;
#X connect 1 0 2 0;
#X connect 1 1 3 0;
#X connect 2 0 4 0;
#X connect 3 0 9 0;
#X connect 4 0 5 0;
#X connect 4 0 9 0;
#X connect 5 0 6 0;
#X connect 6 0 11 0;
#X connect 6 1 17 0;
#X connect 7 0 10 0;
#X connect 8 0 7 0;
#X connect 8 1 12 0;
#X connect 9 0 4 1;
#X connect 10 0 4 0;
#X connect 11 0 8 0;
#X connect 12 0 13 0;
#X connect 12 0 14 0;
#X connect 13 0 12 1;
#X connect 14 0 15 0;
#X connect 15 0 16 0;
#X connect 17 0 18 0;
#X connect 17 1 18 1;
#X connect 18 0 19 0;
#X connect 19 0 15 1;
#X restore 79 74 pd strikePattern;
#X obj 79 96 route 0 1 2 3, f 26;
#X obj 87 271 outlet~;
#X obj 78 47 inlet;
#X obj 63 138 strikeSound;
#X obj 153 185 strikeSound;
#X obj 111 160 strikeSound;
#X obj 193 124 strikeSound;
#X connect 0 0 1 0;
#X connect 1 0 4 0;
#X connect 1 1 6 0;
#X connect 1 2 5 0;
#X connect 1 3 7 0;
#X connect 3 0 0 0;
#X connect 4 0 2 0;
#X connect 5 0 2 0;
#X connect 6 0 2 0;
#X connect 7 0 2 0;
#X restore 444 125 pd strikeSound;
#X obj 444 147 *~ 0.3;
#X obj 444 169 throw~ out;
#X obj 9 175 r go;
#N canvas 377 119 1230 798 rumble 0;
#X obj 38 63 inlet trig;
#X obj 389 94 inlet density;
#X msg 38 85 1 50 \, 0 8000 50;
#X obj 38 107 vline~;
#X obj 39 627 *~, f 18;
#X obj 243 150 lop~;
#X obj 243 172 lop~;
#X obj 243 194 max~ 0;
#X obj 243 216 *~ 3000;
#X obj 243 238 +~ 1;
#X obj 243 260 phasor~;
#X obj 139 270 lop~;
#X obj 139 292 lop~;
#X obj 139 317 samphold~, f 18;
#X obj 139 343 rpole~ 0.99;
#X obj 139 365 *~ 0.04;
#X obj 139 405 min~ 0;
#X obj 139 427 *~ -1;
#X obj 140 449 +~, f 13;
#X obj 175 472 -~ 0.5;
#X obj 175 494 *~;
#X obj 175 516 *~ -4;
#X obj 175 538 +~ 1;
#X obj 175 560 *~ 0.5;
#X obj 142 582 *~;
#X obj 142 603 hip~ 100;
#X obj 39 661 outlet~;
#X text 295 212 a multiplir of 3000 is necessary to recover the rather
small level after such strong filtering, f 27;
#X text 64 341 creates a wandering triangle wave, f 10;
#X text 256 314 falling edges from phasor~ freeze the value on left
inlet of samphold~ to produce a stepped waveform with random step heights
and change intervals, f 33;
#X text 60 217 we want a slow signal swinging positive and negative
, f 19;
#X obj 234 403 max~ 0;
#X obj 139 249 r~ noise;
#X obj 242 128 r~ noise;
#X connect 0 0 2 0;
#X connect 1 0 5 1;
#X connect 1 0 6 1;
#X connect 1 0 12 1;
#X connect 1 0 11 1;
#X connect 2 0 3 0;
#X connect 3 0 4 0;
#X connect 4 0 26 0;
#X connect 5 0 6 0;
#X connect 6 0 7 0;
#X connect 7 0 8 0;
#X connect 8 0 9 0;
#X connect 9 0 10 0;
#X connect 10 0 13 1;
#X connect 11 0 12 0;
#X connect 12 0 13 0;
#X connect 13 0 14 0;
#X connect 14 0 15 0;
#X connect 15 0 16 0;
#X connect 15 0 31 0;
#X connect 16 0 17 0;
#X connect 17 0 18 0;
#X connect 18 0 19 0;
#X connect 18 0 24 0;
#X connect 19 0 20 0;
#X connect 19 0 20 1;
#X connect 20 0 21 0;
#X connect 21 0 22 0;
#X connect 22 0 23 0;
#X connect 23 0 24 1;
#X connect 24 0 25 0;
#X connect 25 0 4 1;
#X connect 31 0 18 1;
#X connect 32 0 11 0;
#X connect 33 0 5 0;
#X restore 9 197 pd rumble;
#X obj 10 268 throw~ distance;
#X obj 59 100 r go;
#X obj 59 144 line;
#X obj 59 166 * 2000;
#X obj 136 101 r go;
#N canvas 223 111 650 464 afterImage 0;
#X obj 157 17 inlet;
#X obj 157 39 del 200;
#X msg 98 71 1 \, 0 600;
#X msg 180 72 1 \, 0 6000;
#X obj 98 115 * 30;
#X obj 98 137 + 3;
#X obj 29 174 lop~ 3, f 12;
#X obj 29 196 *~ 80;
#X obj 29 254 *~;
#X obj 29 276 clip~ -1 1;
#X obj 29 298 bp~ 333 4;
#X obj 29 357 *~, f 25;
#X obj 29 379 *~ 0.9;
#X obj 29 401 outlet~;
#X text 234 16 bouncing off buildings and trees reduces the top and
bottom frequencies to leave more mid-range., f 30;
#X text 106 169 stuttering or gated effect on the noise, f 19;
#X text 87 296 filtering into a band of 300Hz produces a mid-range
clatter that sounds like reflections from a building, f 34;
#X obj 180 94 line~;
#X obj 98 93 line;
#X obj 25 133 r~ noise;
#X obj 47 222 r~ noise;
#X connect 0 0 1 0;
#X connect 1 0 2 0;
#X connect 1 0 3 0;
#X connect 2 0 18 0;
#X connect 3 0 17 0;
#X connect 4 0 5 0;
#X connect 5 0 6 1;
#X connect 6 0 7 0;
#X connect 7 0 8 0;
#X connect 8 0 9 0;
#X connect 9 0 10 0;
#X connect 10 0 11 0;
#X connect 11 0 12 0;
#X connect 12 0 13 0;
#X connect 17 0 11 1;
#X connect 18 0 4 0;
#X connect 19 0 6 0;
#X connect 20 0 8 1;
#X restore 136 123 pd afterImage;
#X obj 136 145 *~ 0.9;
#X obj 136 167 throw~ out;
#X obj 235 105 r go;
#N canvas 720 23 592 526 deep 0;
#X obj 92 88 lop~ 80;
#X obj 92 110 lop~ 80;
#X obj 92 132 hip~ 15;
#X obj 92 154 *~ 12;
#X obj 92 176 clip~ -1 1;
#X obj 92 198 lop~ 80;
#X obj 92 220 lop~ 80;
#X obj 92 242 *~, f 19;
#X obj 92 264 outlet~;
#X obj 216 72 inlet;
#X obj 215 94 del 1000;
#X msg 216 116 1 2000 \, 0 20000 2000;
#X obj 216 138 vline~;
#X obj 215 192 *~;
#X text 29 10 we need some measure of high-pass filtering \, because
they are so volatile in the low-frequency range., f 37;
#X text -2 86 low pass filters of 80Hz creates "black noise", f 14
;
#X text 4 298 this part doesn't start until a second after the strike
\, and it builds up slowly to create a dramatic crescendo towards the
end of the sound effect, f 57;
#X obj 36 56 r~ noise;
#X connect 0 0 1 0;
#X connect 1 0 2 0;
#X connect 2 0 3 0;
#X connect 3 0 4 0;
#X connect 4 0 5 0;
#X connect 5 0 6 0;
#X connect 6 0 7 0;
#X connect 7 0 8 0;
#X connect 9 0 10 0;
#X connect 10 0 11 0;
#X connect 11 0 12 0;
#X connect 12 0 13 0;
#X connect 12 0 13 1;
#X connect 13 0 7 1;
#X connect 17 0 0 0;
#X restore 235 127 pd deep;
#X obj 235 149 *~ 0.5;
#X obj 235 171 throw~ distance;
#X obj 346 153 tgl 15 0 empty boxDelay empty 17 7 0 10 -262144 -1 -1
1 1;
#N canvas 120 495 512 301 boxOfDelays 0;
#X text 22 11 where each echo is returned by an abstraction that has
its own tone.;
#X obj 315 52 inlet;
#X obj 315 74 switch~;
#X obj 23 106 udly 12000;
#X obj 33 116 udly 12000;
#X obj 43 126 udly 12000;
#X obj 53 136 udly 12000;
#X obj 63 146 udly 12000;
#X obj 73 156 udly 12000;
#X obj 83 166 udly 12000;
#X obj 93 176 udly 12000;
#X obj 103 186 udly 12000;
#X obj 113 196 udly 12000;
#X obj 33 116 udly 12000;
#X obj 43 126 udly 12000;
#X obj 53 136 udly 12000;
#X obj 63 146 udly 12000;
#X obj 73 156 udly 12000;
#X obj 83 166 udly 12000;
#X obj 93 176 udly 12000;
#X obj 103 186 udly 12000;
#X obj 113 196 udly 12000;
#X obj 109 103 udly 12000;
#X obj 119 113 udly 12000;
#X obj 129 123 udly 12000;
#X obj 139 133 udly 12000;
#X obj 149 143 udly 12000;
#X obj 159 153 udly 12000;
#X obj 169 163 udly 12000;
#X obj 179 173 udly 12000;
#X obj 189 183 udly 12000;
#X obj 199 193 udly 12000;
#X obj 119 113 udly 12000;
#X obj 129 123 udly 12000;
#X obj 139 133 udly 12000;
#X obj 149 143 udly 12000;
#X obj 159 153 udly 12000;
#X obj 169 163 udly 12000;
#X obj 179 173 udly 12000;
#X obj 189 183 udly 12000;
#X obj 199 193 udly 12000;
#X connect 1 0 2 0;
#X restore 346 173 pd boxOfDelays;
#X obj 304 220 catch~ distance;
#X obj 358 244 r go;
#X msg 358 266 0 \, 1 12000;
#X obj 358 288 line;
#X obj 227 292 catch~ out;
#X obj 427 353 s~ udly;
#X obj 10 228 *~ 0.4;
#X msg 59 121 1 \, 0 9000;
#N canvas 765 335 313 477 distance 0;
#X obj 131 32 inlet;
#X obj 131 52 swap 1;
#X obj 134 76 -;
#X obj 131 98 * 4000;
#X obj 131 120 + 50;
#X obj 59 92 inlet~;
#X obj 59 114 lop~ 100;
#X obj 59 136 lop~ 100;
#X obj 59 158 lop~ 100;
#X obj 66 388 +~, f 8;
#X obj 61 421 outlet~;
#X obj 110 257 sig~;
#X obj 110 279 *~ 3;
#X obj 110 301 +~ 2;
#X obj 110 323 vd~ distance;
#X obj 110 345 *~ 0.5;
#X obj 109 201 delwrite~ distance 1000;
#X connect 0 0 1 0;
#X connect 0 0 11 0;
#X connect 1 0 2 0;
#X connect 1 1 2 1;
#X connect 2 0 3 0;
#X connect 3 0 4 0;
#X connect 4 0 6 1;
#X connect 4 0 7 1;
#X connect 4 0 8 1;
#X connect 5 0 6 0;
#X connect 6 0 7 0;
#X connect 7 0 8 0;
#X connect 8 0 9 0;
#X connect 8 0 16 0;
#X connect 9 0 10 0;
#X connect 11 0 12 0;
#X connect 12 0 13 0;
#X connect 13 0 14 0;
#X connect 14 0 15 0;
#X connect 15 0 9 1;
#X restore 305 313 pd distance;
#X obj 639 130 t b b;
#X obj 703 162 s shake;
#X obj 639 152 del 40;
#X obj 640 62 tgl 15 0 thunderStart empty empty 17 7 0 10 -262144 -1
-1 1 1;
#X obj 640 82 metro 20000;
#X obj 639 106 t b b;
#X obj 693 127 random 20000;
#X obj 213 534 throw~ thunder;
#X obj 586 55 bng 15 250 50 0 empty thunderTap empty 17 7 0 10 -262144
-1 -1;
#X connect 1 0 2 0;
#X connect 2 0 3 0;
#X connect 3 0 4 0;
#X connect 5 0 6 0;
#X connect 6 0 27 0;
#X connect 8 0 28 0;
#X connect 9 0 10 0;
#X connect 10 0 6 1;
#X connect 11 0 12 0;
#X connect 12 0 13 0;
#X connect 13 0 14 0;
#X connect 15 0 16 0;
#X connect 16 0 17 0;
#X connect 17 0 18 0;
#X connect 19 0 20 0;
#X connect 21 0 29 0;
#X connect 22 0 23 0;
#X connect 23 0 24 0;
#X connect 24 0 29 1;
#X connect 25 0 37 0;
#X connect 27 0 7 0;
#X connect 28 0 9 0;
#X connect 29 0 26 0;
#X connect 29 0 37 0;
#X connect 30 0 32 0;
#X connect 30 1 31 0;
#X connect 32 0 0 0;
#X connect 33 0 34 0;
#X connect 34 0 35 0;
#X connect 35 0 30 0;
#X connect 35 1 36 0;
#X connect 36 0 34 1;
#X connect 38 0 30 0;
