#N canvas 550 52 700 794 10;
#X obj 21 50 r shake;
#X obj 20 72 t b b, f 13;
#X obj 26 167 random, f 13;
#X obj 26 189 / 10000;
#X text 13 7 this effect gives distance and space to the sound by creating
a multiple delay, f 78;
#X obj 98 140 * 1000;
#X obj 98 118 \$1;
#X obj 26 211 t f b f b, f 12;
#X obj 182 62 r~ udly;
#X obj 182 84 delwrite~ \$0-a \$1;
#X obj 39 283 -, f 6;
#X obj 39 305 / \$1;
#X obj 39 261 \$1;
#X obj 40 327 *, f 10;
#X obj 94 258 random 10000;
#X obj 94 280 / 20000;
#X obj 94 302 + 0.5;
#X obj 76 366 * 400;
#X obj 76 388 + 400;
#X obj 27 582 *~, f 30;
#N canvas 464 241 500 618 cPan 0;
#X obj 48 327 *~;
#X obj 274 241 *~ 0.25;
#X obj 274 263 -~ 0.25;
#X obj 274 285 cos~;
#X obj 64 298 -~ 0.25;
#X obj 273 360 *~;
#X obj 48 349 outlet~;
#X obj 273 382 outlet~;
#X obj 50 25 inlet~;
#X obj 214 124 inlet~;
#X connect 0 0 6 0;
#X connect 1 0 2 0;
#X connect 2 0 3 0;
#X connect 2 0 4 0;
#X connect 3 0 5 1;
#X connect 4 0 0 1;
#X connect 5 0 7 0;
#X connect 8 0 0 0;
#X connect 8 0 5 0;
#X connect 9 0 1 0;
#X restore 27 604 pd cPan;
#X text 233 182 echoes which are delayed by a short time are brighter
and further to the left of the stereio image \, and echoes appearing
after a long time are softer \, lower \, and further to the right;
#X obj 25 673 throw~ la;
#X obj 65 641 throw~ ra;
#X obj 3 373 line~;
#X msg 345 391 \$1 10;
#X obj 345 413 line~;
#X msg 140 421 \$1 10;
#X obj 140 443 line~;
#X msg 66 459 \$1 10;
#X obj 66 481 line~;
#X obj 28 540 vcf~ 2;
#X obj 25 413 delread4~ \$0-a;
#X obj 2 354 pack f \$1;
#X connect 0 0 1 0;
#X connect 1 0 2 0;
#X connect 1 1 6 0;
#X connect 2 0 3 0;
#X connect 3 0 7 0;
#X connect 5 0 2 1;
#X connect 6 0 5 0;
#X connect 7 0 33 0;
#X connect 7 1 12 0;
#X connect 7 2 10 1;
#X connect 7 3 14 0;
#X connect 8 0 9 0;
#X connect 10 0 11 0;
#X connect 11 0 13 0;
#X connect 12 0 10 0;
#X connect 13 0 17 0;
#X connect 13 0 25 0;
#X connect 13 0 27 0;
#X connect 14 0 15 0;
#X connect 15 0 16 0;
#X connect 16 0 13 1;
#X connect 17 0 18 0;
#X connect 18 0 29 0;
#X connect 19 0 20 0;
#X connect 20 0 22 0;
#X connect 20 1 23 0;
#X connect 24 0 32 0;
#X connect 25 0 26 0;
#X connect 26 0 19 1;
#X connect 27 0 28 0;
#X connect 28 0 20 1;
#X connect 29 0 30 0;
#X connect 30 0 31 1;
#X connect 31 0 19 0;
#X connect 32 0 31 0;
#X connect 33 0 24 0;
